<?xml version="1.0" standalone="no"?>
<!DOCTYPE svg PUBLIC "-//W3C//DTD SVG 20010904//EN"
 "http://www.w3.org/TR/2001/REC-SVG-20010904/DTD/svg10.dtd">
<svg version="1.0" xmlns="http://www.w3.org/2000/svg"
 width="519.000000pt" height="519.000000pt" viewBox="0 0 519.000000 519.000000"
 preserveAspectRatio="xMidYMid meet">
<metadata>
Created by potrace 1.11, written by Peter Selinger 2001-2013
</metadata>
<g transform="translate(0.000000,519.000000) scale(0.100000,-0.100000)"
fill="#000000" stroke="none">
<path d="M4501 4603 c-82 -623 -82 -628 -91 -612 -5 8 -52 169 -105 359 -54
190 -99 348 -102 352 -12 22 -188 -97 -258 -174 -88 -98 -127 -200 -126 -331
1 -101 27 -200 85 -322 79 -166 176 -269 301 -320 l55 -22 -89 -135 c-148
-224 -275 -337 -364 -325 -62 8 -90 44 -127 161 -72 226 -115 275 -393 447
-73 45 -187 113 -254 151 l-123 69 -1 40 c-1 21 -2 44 -3 50 -1 6 35 23 79 38
221 74 359 202 380 351 9 60 -10 161 -41 222 -67 132 -202 195 -403 186 -88
-3 -102 -7 -167 -41 -118 -63 -200 -159 -218 -257 -13 -76 53 -246 142 -361
44 -58 52 -75 58 -128 3 -33 4 -61 1 -61 -3 0 -43 9 -89 20 -154 38 -345 36
-495 -6 -22 -6 -23 -4 -23 58 l0 65 49 32 c58 37 122 106 146 158 13 27 16 52
13 97 -12 143 -108 241 -260 265 -150 25 -281 -44 -340 -177 -44 -99 -6 -243
93 -347 53 -56 102 -81 145 -72 28 5 33 -7 37 -87 l2 -49 -85 -18 c-436 -95
-636 -269 -915 -794 -32 -60 -60 -112 -62 -114 -1 -2 -26 18 -55 45 -29 27
-91 84 -137 127 l-83 77 28 22 c72 53 165 163 202 236 34 71 37 82 37 166 0
81 -3 98 -30 151 -32 63 -152 197 -204 228 -17 10 -31 16 -31 12 0 -19 -71
-479 -74 -483 -5 -4 -15 29 -137 436 -46 155 -86 282 -89 282 -13 0 -128 -157
-168 -228 -108 -196 -107 -341 3 -504 50 -75 159 -188 229 -239 61 -43 413
-482 525 -653 63 -96 64 -121 14 -194 -25 -37 -37 -67 -41 -101 -4 -43 8 -196
25 -311 6 -45 7 -45 18 35 25 162 48 209 127 254 29 17 56 31 59 31 3 0 -5
-32 -19 -71 l-25 -70 23 -161 c14 -93 27 -153 30 -142 4 11 20 77 36 148 l28
128 71 55 70 55 3 -203 2 -204 58 125 c53 113 63 128 106 158 27 17 52 32 57
32 5 0 10 -86 11 -191 l3 -191 99 154 c55 84 103 157 107 161 3 5 49 -5 100
-21 149 -48 234 -63 382 -69 158 -6 306 7 476 44 64 14 125 27 136 29 17 4 33
-20 102 -143 l83 -148 0 163 0 162 28 0 c34 -1 111 -16 118 -23 3 -3 21 -65
39 -137 18 -72 36 -134 39 -137 3 -4 6 77 6 180 l0 186 33 -5 c17 -3 56 -8 86
-12 l54 -7 32 -130 33 -130 1 208 c1 138 5 207 12 207 21 0 104 -23 114 -32 6
-5 27 -73 47 -151 l37 -142 0 173 1 172 -30 53 c-17 31 -30 68 -30 88 0 39 28
69 185 201 102 85 221 208 261 268 15 22 90 154 168 292 l141 253 75 39 c220
114 390 294 455 483 104 302 -1 687 -244 891 -47 40 -188 132 -201 132 -3 0
-34 -215 -69 -477z m-1540 12 c104 -36 169 -130 169 -244 0 -83 -22 -133 -83
-188 -57 -53 -137 -79 -205 -67 l-47 8 55 6 c31 4 65 12 76 18 52 27 104 114
104 172 0 107 -107 200 -215 188 -117 -14 -197 -143 -155 -252 5 -15 6 -26 1
-26 -5 0 -18 21 -28 48 -78 206 118 408 328 337z m-865 -120 c131 -77 131
-273 0 -350 -44 -26 -145 -47 -133 -28 4 6 20 13 37 17 70 14 121 108 101 184
-18 64 -81 112 -149 112 -78 0 -146 -70 -146 -150 0 -66 -18 -49 -24 23 -14
169 166 279 314 192z m534 -1623 c0 -12 -95 -128 -133 -162 -41 -38 -116 -66
-224 -85 -148 -26 -255 -15 -355 36 -81 41 -190 171 -165 195 13 13 877 28
877 16z"/>
<path d="M1192 1640 l-33 -40 38 0 c30 0 47 8 83 40 l45 39 -50 0 c-46 1 -53
-2 -83 -39z"/>
<path d="M691 1565 c-79 -25 -122 -84 -123 -169 -1 -91 50 -154 141 -176 62
-15 132 -1 176 35 l30 24 -32 33 c-33 32 -33 32 -62 15 -33 -19 -73 -22 -101
-7 -28 15 -43 69 -29 108 18 53 74 68 130 35 29 -17 29 -17 62 15 l32 33 -29
24 c-29 23 -97 46 -133 44 -10 0 -38 -6 -62 -14z"/>
<path d="M1150 1568 c-47 -13 -96 -52 -116 -91 -22 -41 -22 -123 0 -164 37
-73 138 -115 224 -93 93 23 142 84 142 175 0 88 -48 150 -135 174 -47 13 -68
13 -115 -1z m111 -107 c19 -15 24 -29 24 -66 0 -37 -5 -51 -24 -66 -54 -44
-131 -5 -131 66 0 71 77 110 131 66z"/>
<path d="M2225 1575 c-5 -2 -22 -6 -37 -9 -35 -8 -85 -50 -105 -89 -19 -38
-21 -123 -3 -157 36 -71 92 -103 175 -104 80 0 130 25 166 83 22 34 29 57 29
96 0 63 -41 134 -91 157 -34 16 -115 30 -134 23z m82 -110 c30 -21 39 -74 19
-113 -25 -47 -75 -57 -120 -21 -21 16 -26 29 -26 64 0 35 5 48 26 64 32 25 71
27 101 6z"/>
<path d="M3483 1571 c-165 -41 -191 -259 -40 -338 48 -25 143 -22 192 6 63 35
90 82 90 156 0 49 -5 69 -25 98 -43 63 -138 97 -217 78z m100 -105 c27 -21 40
-68 27 -101 -34 -88 -150 -66 -150 29 0 70 70 112 123 72z"/>
<path d="M1530 1396 l0 -176 50 0 50 0 0 70 c0 39 3 70 8 70 4 0 22 -25 40
-55 46 -77 70 -76 114 5 18 33 36 60 41 60 4 0 7 -34 7 -75 l0 -75 50 0 50 0
0 176 0 175 -47 -3 -48 -3 -50 -87 c-27 -48 -54 -86 -60 -84 -5 1 -32 40 -60
87 l-51 84 -47 3 -47 3 0 -175z"/>
<path d="M2800 1395 l0 -175 50 0 50 0 0 70 c0 39 3 70 8 70 4 0 21 -24 37
-53 45 -77 70 -76 115 2 19 34 38 61 43 61 4 0 7 -34 7 -75 l0 -75 50 0 50 0
0 175 0 175 -47 0 -48 0 -53 -90 c-29 -50 -56 -90 -60 -90 -4 0 -31 41 -61 90
l-53 90 -44 0 -44 0 0 -175z"/>
<path d="M3840 1395 l0 -175 140 0 140 0 0 45 0 45 -80 0 -80 0 0 130 0 130
-60 0 -60 0 0 -175z"/>
<path d="M4269 1395 l-77 -175 60 0 c57 0 59 1 69 30 11 29 12 30 79 30 66 0
68 -1 80 -30 12 -29 15 -30 71 -30 33 0 59 2 59 3 0 2 -33 80 -74 173 l-73
169 -59 3 -59 3 -76 -176z m150 14 c6 -18 11 -34 11 -35 0 -2 -14 -4 -31 -4
-26 0 -30 3 -24 18 4 9 10 25 12 35 8 26 20 21 32 -14z"/>
<path d="M355 1475 c-14 -13 -25 -31 -25 -40 0 -24 38 -55 68 -55 57 0 85 73
40 104 -32 22 -55 20 -83 -9z"/>
<path d="M346 1283 c-4 -43 -10 -93 -13 -110 l-5 -33 67 0 68 0 -7 93 c-10
128 -9 127 -60 127 l-44 0 -6 -77z"/>
<path d="M2359 1101 c-62 -20 -99 -61 -99 -110 0 -56 32 -85 124 -110 32 -9
61 -21 63 -28 8 -22 -47 -27 -101 -10 -55 18 -57 17 -76 -31 -16 -41 -10 -46
70 -63 121 -26 220 25 220 112 0 50 -30 83 -91 99 -75 19 -93 26 -96 37 -7 19
36 25 88 13 28 -7 52 -10 54 -8 2 2 11 21 20 41 15 37 15 38 -9 47 -36 13
-138 20 -167 11z"/>
<path d="M2811 1100 c-95 -22 -156 -126 -131 -219 55 -206 380 -168 380 44 0
82 -61 157 -142 174 -55 12 -59 12 -107 1z m109 -110 c27 -27 35 -65 20 -101
-35 -83 -150 -57 -150 35 0 75 80 116 130 66z"/>
<path d="M1870 925 l0 -175 140 0 140 0 0 45 0 45 -86 0 c-83 0 -85 1 -82 23
3 20 8 22 73 23 l70 1 3 42 3 41 -75 0 c-69 0 -76 2 -76 20 0 18 7 20 85 20
l85 0 0 45 0 45 -140 0 -140 0 0 -175z"/>
<path d="M3174 1038 c4 -35 9 -85 13 -111 l6 -48 41 3 41 3 7 65 c4 36 9 84
11 108 l5 42 -66 0 -65 0 7 -62z"/>
<path d="M3187 842 c-36 -40 -7 -92 50 -92 36 0 56 20 56 55 0 14 -6 32 -13
40 -17 21 -73 19 -93 -3z"/>
</g>
</svg>
